<svg width="28" height="28" viewBox="0 0 28 28" fill="none" xmlns="http://www.w3.org/2000/svg">
<path d="M12.7834 4.18234L12.1735 10.8319L13.7285 11.1183L13.4217 14.4627L12.7997 15.2881L10.5409 13.5859L9.26422 15.2801L13.0828 18.1576L12.5503 23.9636C8.334 23.2837 4.8688 19.9315 4.24329 15.4808C3.47466 10.0117 7.28514 4.95503 12.7542 4.18639C12.764 4.18503 12.7737 4.18368 12.7834 4.18234Z" fill="white"/>
<path d="M18.5173 5.8997L17.1713 10.8084L18.6961 11.2265L20.275 12.6432L16.8345 16.4778L13.7188 25.2669C14.4435 25.3911 15.1932 25.4368 15.9585 25.3953C21.4732 25.0966 25.7017 20.3839 25.4029 14.8691C25.1731 10.6252 22.3291 7.14308 18.5173 5.8997Z" fill="white"/>
</svg>
