<svg width="24" height="24" viewBox="0 0 24 24" fill="none" xmlns="http://www.w3.org/2000/svg">
<path d="M12.0294 2.00004L10.5 8.5L12 9L11.2308 12.2692L10.5 13L8.5 11L7 12.5L10.381 15.881L9.04556 21.5564C4.96494 20.2963 2 16.4944 2 12C2 6.47715 6.47715 2 12 2C12.0098 2 12.0196 2.00001 12.0294 2.00004Z" fill="#EF4F1D"/>
<path d="M17.4685 4.4987L15.4524 9.17228L16.9042 9.79857L18.2706 11.4212L14.33 14.7396L10.0214 23.0096C10.7217 23.2334 11.4578 23.383 12.2213 23.4485C17.7239 23.9202 22.5672 19.8418 23.0389 14.3391C23.4018 10.1045 21.0702 6.26048 17.4685 4.4987Z" fill="#EF4F1D"/>
</svg>
